ffmpeg version 4.2.4-1ubuntu0.1 Copyright (c) 2000-2020 the FFmpeg developers
  built with gcc 9 (Ubuntu 9.3.0-10ubuntu2)
  configuration: --prefix=/usr --extra-version=1ubuntu0.1 --toolchain=hardened --libdir=/usr/lib/x86_64-linux-gnu --incdir=/usr/include/x86_64-linux-gnu --arch=amd64 --enable-gpl --disable-stripping --enable-avresample --disable-filter=resample --enable-avisynth --enable-gnutls --enable-ladspa --enable-libaom --enable-libass --enable-libbluray --enable-libbs2b --enable-libcaca --enable-libcdio --enable-libcodec2 --enable-libflite --enable-libfontconfig --enable-libfreetype --enable-libfribidi --enable-libgme --enable-libgsm --enable-libjack --enable-libmp3lame --enable-libmysofa --enable-libopenjpeg --enable-libopenmpt --enable-libopus --enable-libpulse --enable-librsvg --enable-librubberband --enable-libshine --enable-libsnappy --enable-libsoxr --enable-libspeex --enable-libssh --enable-libtheora --enable-libtwolame --enable-libvidstab --enable-libvorbis --enable-libvpx --enable-libwavpack --enable-libwebp --enable-libx265 --enable-libxml2 --enable-libxvid --enable-libzmq --enable-libzvbi --enable-lv2 --enable-omx --enable-openal --enable-opencl --enable-opengl --enable-sdl2 --enable-libdc1394 --enable-libdrm --enable-libiec61883 --enable-nvenc --enable-chromaprint --enable-frei0r --enable-libx264 --enable-shared
  libavutil      56. 31.100 / 56. 31.100
  libavcodec     58. 54.100 / 58. 54.100
  libavformat    58. 29.100 / 58. 29.100
  libavdevice    58.  8.100 / 58.  8.100
  libavfilter     7. 57.100 /  7. 57.100
  libavresample   4.  0.  0 /  4.  0.  0
  libswscale      5.  5.100 /  5.  5.100
  libswresample   3.  5.100 /  3.  5.100
  libpostproc    55.  5.100 / 55.  5.100
Input #0, image2, from './Cubo/Cubo%02d.png':
  Duration: 00:00:04.00, start: 0.000000, bitrate: N/A
    Stream #0:0: Video: png, rgb24(pc), 320x240, 25 fps, 25 tbr, 25 tbn, 25 tbc
Stream mapping:
  Stream #0:0 -> #0:0 (png (native) -> h264 (libx264))
Press [q] to stop, [?] for help
[libx264 @ 0x555df0aafa80] using cpu capabilities: MMX2 SSE2Fast SSSE3 SSE4.2 AVX FMA3 BMI2 AVX2
[libx264 @ 0x555df0aafa80] profile High 4:4:4 Predictive, level 1.3, 4:4:4 8-bit
Output #0, avi, to 'exercici5/cubo_h264_g16_ref0_r25.avi':
  Metadata:
    ISFT            : Lavf58.29.100
    Stream #0:0: Video: h264 (libx264) (H264 / 0x34363248), yuv444p, 320x240, q=-1--1, 25 fps, 25 tbn, 25 tbc
    Metadata:
      encoder         : Lavc58.54.100 libx264
    Side data:
      cpb: bitrate max/min/avg: 0/0/0 buffer size: 0 vbv_delay: -1
frame=  100 fps=0.0 q=-1.0 Lsize=     407kB time=00:00:03.92 bitrate= 850.6kbits/s speed=20.7x    
video:399kB audio:0kB subtitle:0kB other streams:0kB global headers:0kB muxing overhead: 1.992184%
bench: utime=0.764s stime=0.017s rtime=0.190s
bench: maxrss=79944kB
[libx264 @ 0x555df0aafa80] frame I:8     Avg QP:25.24  size:  6165
[libx264 @ 0x555df0aafa80] frame P:71    Avg QP:28.43  size:  4088
[libx264 @ 0x555df0aafa80] frame B:21    Avg QP:29.53  size:  3291
[libx264 @ 0x555df0aafa80] consecutive B-frames: 71.0%  2.0%  3.0% 24.0%
[libx264 @ 0x555df0aafa80] mb I  I16..4: 22.0%  0.0% 78.0%
[libx264 @ 0x555df0aafa80] mb P  I16..4:  9.2%  0.0% 36.0%  P16..4: 19.6% 20.9%  9.2%  0.0%  0.0%    skip: 5.0%
[libx264 @ 0x555df0aafa80] mb B  I16..4:  2.6%  0.0% 19.4%  B16..8: 30.5% 22.6%  7.9%  direct: 6.2%  skip:10.8%  L0:39.4% L1:39.9% BI:20.7%
[libx264 @ 0x555df0aafa80] coded y,u,v intra: 71.4% 56.6% 59.5% inter: 40.8% 14.3% 17.4%
[libx264 @ 0x555df0aafa80] i16 v,h,dc,p: 18% 36% 18% 28%
[libx264 @ 0x555df0aafa80] i4 v,h,dc,ddl,ddr,vr,hd,vl,hu: 26% 12% 19%  8%  6%  8%  5% 12%  4%
[libx264 @ 0x555df0aafa80] Weighted P-Frames: Y:16.9% UV:14.1%
[libx264 @ 0x555df0aafa80] kb/s:817.29
